<svg width="727" height="256" viewBox="0 0 727 256" fill="none" xmlns="http://www.w3.org/2000/svg">
<path d="M68.8281 109V52.4375H83.6719V74.7031H104.531V52.4375H119.453V109H104.531V86.7344H83.6719V109H68.8281ZM129.431 109V52.4375H169.822V64.4688H144.275V74.7031H167.713V86.7344H144.275V96.9688H169.744V109H129.431ZM180.034 109V52.4375H220.425V64.4688H194.878V74.7031H218.316V86.7344H194.878V96.9688H220.347V109H180.034ZM253.841 52.4375H268.528V91.2656C268.45 102.359 259.778 109.781 247.356 109.781C236.575 109.781 227.747 104.391 227.825 91.5781H242.669C242.825 95.875 244.856 98.1406 248.294 98.1406C251.887 98.1406 253.762 95.7969 253.841 91.2656V52.4375ZM278.506 109V52.4375H318.897V64.4688H293.35V74.7031H316.788V86.7344H293.35V96.9688H318.819V109H278.506ZM337.312 109.859C333.094 109.859 329.656 106.5 329.734 102.281C329.656 98.1406 333.094 94.7812 337.312 94.7812C341.297 94.7812 344.891 98.1406 344.891 102.281C344.891 106.5 341.297 109.859 337.312 109.859ZM68.8281 204V147.438H108.281V159.469H83.6719V169.703H105.781V181.734H83.6719V204H68.8281ZM141.541 185.484V161.578H156.306V204H142.322V195.953H141.853C139.978 201.344 135.134 204.547 128.806 204.547C119.978 204.547 114.119 197.984 114.119 188.609V161.578H128.884V185.562C128.884 189.859 131.15 192.516 135.134 192.516C138.963 192.516 141.619 189.938 141.541 185.484ZM181.441 147.438V204H166.675V147.438H181.441ZM206.497 147.438V204H191.731V147.438H206.497ZM244.366 175.797V186.969H217.959V175.797H244.366ZM286.297 164.938C285.984 161.109 283.484 158.922 278.406 158.922C273.484 158.922 271.297 160.797 271.219 163.453C271.141 166.344 273.797 167.984 279.031 169.078L283.719 170.172C295.906 172.75 301.297 178.688 301.375 187.359C301.297 198.453 292.781 204.703 278.484 204.703C263.875 204.703 254.422 198.297 254.266 184.391H268.484C268.719 189.625 272.391 192.438 278.25 192.438C283.328 192.438 286.062 190.328 286.141 187.359C286.062 184.625 283.797 183.062 277.469 181.656L271.766 180.406C261.844 178.219 255.75 173.297 255.75 164.547C255.672 153.844 265.125 146.656 278.406 146.656C292 146.656 300.516 153.922 300.594 164.938H286.297ZM334.947 161.578V172.281H327.525V190.406C327.525 192.438 328.541 193.219 330.572 193.297C331.666 193.375 333.853 193.219 335.494 193.062V204.078C334.087 204.312 331.822 204.625 328.462 204.625C318.15 204.625 312.681 200.719 312.759 191.891V172.281H307.291V161.578H312.759V151.422H327.525V161.578H334.947ZM341.644 192.281C341.644 182.906 348.597 179.312 357.269 178.766L367.191 178.375V174.938C367.191 172.594 365.237 171.266 362.347 171.266C359.3 171.266 357.347 172.594 356.956 175.25H343.284C343.831 167.516 350.081 161.031 362.581 161.031C374.378 161.031 381.956 166.812 381.956 175.016V204H368.128V198.062H367.816C365.316 202.672 361.097 204.703 355.472 204.703C347.347 204.703 341.644 200.719 341.644 192.281ZM355.55 191.422C355.55 193.922 357.503 195.25 360.237 195.25C363.909 195.25 367.347 192.906 367.269 188.922V186.656C365.784 186.695 361.878 186.852 359.925 187.047C357.269 187.359 355.55 189.156 355.55 191.422ZM412.091 204.781C398.419 204.781 390.216 195.953 390.216 182.906C390.216 169.859 398.419 161.031 412.091 161.031C424.356 161.031 432.169 168.062 432.325 179H418.575C418.184 174.547 415.763 172.125 412.325 172.125C408.106 172.125 405.294 175.641 405.294 182.75C405.294 189.938 408.106 193.531 412.325 193.531C415.763 193.531 418.184 191.109 418.575 186.578H432.325C432.091 197.672 424.513 204.781 412.091 204.781ZM441.131 204V147.438H455.897V176.109H456.444L467.147 161.578H483.788L469.256 180.172L484.256 204H467.303L458.319 188.766L455.897 191.734V204H441.131ZM531.556 204H510.072V147.438H531.4C548.822 147.438 559.681 158.062 559.681 175.719C559.681 193.375 548.822 204 531.556 204ZM524.916 191.344H531.009C539.759 191.344 544.681 187.672 544.681 175.719C544.681 163.766 539.759 160.094 530.619 160.094H524.916V191.344ZM589.659 204.781C576.144 204.781 567.862 196.578 567.862 182.906C567.862 169.781 576.222 161.031 589.347 161.031C601.925 161.031 610.284 169.156 610.284 182.75V186.266H582.472V186.812C582.472 191.188 585.284 194.312 589.972 194.312C593.175 194.312 595.753 192.906 596.691 190.484H610.206C608.722 199.234 601.222 204.781 589.659 204.781ZM582.472 177.984H596.612C596.534 174.156 593.566 171.5 589.659 171.5C585.714 171.5 582.589 174.195 582.472 177.984ZM660.184 161.578L645.888 204H628.778L614.481 161.578H630.028L637.138 189.938H637.528L644.716 161.578H660.184Z" fill="black"/>
</svg>
