<svg width="727" height="256" viewBox="0 0 727 256" fill="none" xmlns="http://www.w3.org/2000/svg">
<mask id="path-1-outside-1_309_58" maskUnits="userSpaceOnUse" x="41" y="42" width="358" height="172" fill="black">
<rect fill="white" x="41" y="42" width="358" height="172"/>
<path d="M83.1562 48.4531C83.1562 67.9844 71.2812 81.0312 49.4062 86.5781L44.7188 76.8125C59.875 73.1016 67.8438 66.1094 69.5625 58.0625H49.1719V48.4531H83.1562ZM105.578 44.625V84.625H93V44.625H105.578ZM105.578 87.2812V115.953H56.75V87.2812H105.578ZM69.1719 97.0469V106.266H93.3125V97.0469H69.1719ZM177.744 44.4688V116.734H165.322V44.4688H177.744ZM116.416 95.1719C129.541 95.3281 146.65 95.4844 161.884 93.4531L162.666 102.516C146.728 105.641 130.713 105.484 117.978 105.484L116.416 95.1719ZM161.416 52.6719V62.3594H117.822V52.6719H133.213V45.3281H145.947V52.6719H161.416ZM139.697 64.3906C150.4 64.3906 157.822 69.9375 157.9 78.2969C157.822 86.5 150.4 92.125 139.697 92.125C129.072 92.125 121.494 86.5 121.572 78.2969C121.494 69.9375 129.072 64.3906 139.697 64.3906ZM139.697 73.8438C135.869 73.8438 133.369 75.25 133.447 78.2969C133.369 81.3438 135.869 82.6719 139.697 82.6719C143.369 82.6719 145.869 81.3438 145.869 78.2969C145.869 75.25 143.369 73.8438 139.697 73.8438ZM250.613 44.4688V116.734H238.816V44.4688H250.613ZM235.691 45.4062V113.688H224.05V94.1562L217.878 102.047C211.902 98.6094 208.073 93.0625 205.769 86.2656C203.308 93.6875 199.363 99.9375 193.269 103.688L185.847 94.4688C196.863 87.5938 199.597 74.7812 199.597 63.0625V61.1094H189.05V51.1875H221.081V61.1094H211.628V63.0625C211.55 74.3906 213.972 85.9141 224.05 92.2812V78.5312H216.238V68.4531H224.05V45.4062H235.691ZM110.656 193.922V204.312H44.6406V193.922H71.2812V183.141H49.7969V173.531H58.4688V154.859H49.4062V145.016H105.656V154.859H96.3594V173.531H105.266V183.141H83.7031V193.922H110.656ZM70.9688 173.531H83.9375V154.859H70.9688V173.531ZM175.322 175.797V185.484H123.525V144.234H174.931V154.312H136.259V159.938H173.134V169.625H136.259V175.797H175.322ZM182.197 193.922V204H116.181V193.922H182.197ZM247.956 141.109V150.25H239.675V156.812H247.331V166.031H226.863V169H253.659V178.609H187.722V169H214.206V166.031H193.972V156.812H201.55V150.25H193.269V141.109H247.956ZM245.847 181.109V200.25H207.331V202.359H247.566V211.422H195.066V191.969H233.503V189.859H195.144V181.109H245.847ZM214.05 156.812H227.019V150.25H214.05V156.812ZM320.356 139.469V211.969H307.856V139.469H320.356ZM297.7 145.172V174.391H275.903V185.172C286.216 185.055 294.692 184.469 303.872 182.906L304.887 192.984C293.95 195.016 283.403 195.406 269.731 195.406H262.934V164.625H284.887V155.172H262.934V145.172H297.7ZM363.772 142.594C379.397 142.594 391.428 150.719 391.428 162.906C391.428 173.922 382.444 181.344 369.944 183.141V193.688H396.819V203.844H330.803V193.688H357.522V183.062C345.022 181.344 336.116 173.883 336.194 162.906C336.116 150.719 348.069 142.594 363.772 142.594ZM363.772 152.516C354.631 152.516 348.616 156.344 348.616 162.906C348.616 170.094 354.631 173.609 363.772 173.609C372.913 173.609 378.928 170.094 379.006 162.906C378.928 156.344 372.913 152.516 363.772 152.516Z"/>
</mask>
<path d="M83.1562 48.4531H85.1562V46.4531H83.1562V48.4531ZM49.4062 86.5781L47.6032 87.4436L48.3114 88.919L49.8978 88.5168L49.4062 86.5781ZM44.7188 76.8125L44.2431 74.8699L41.8492 75.456L42.9157 77.678L44.7188 76.8125ZM69.5625 58.0625L71.5184 58.4803L72.0348 56.0625H69.5625V58.0625ZM49.1719 58.0625H47.1719V60.0625H49.1719V58.0625ZM49.1719 48.4531V46.4531H47.1719V48.4531H49.1719ZM105.578 44.625H107.578V42.625H105.578V44.625ZM105.578 84.625V86.625H107.578V84.625H105.578ZM93 84.625H91V86.625H93V84.625ZM93 44.625V42.625H91V44.625H93ZM105.578 87.2812H107.578V85.2812H105.578V87.2812ZM105.578 115.953V117.953H107.578V115.953H105.578ZM56.75 115.953H54.75V117.953H56.75V115.953ZM56.75 87.2812V85.2812H54.75V87.2812H56.75ZM69.1719 97.0469V95.0469H67.1719V97.0469H69.1719ZM69.1719 106.266H67.1719V108.266H69.1719V106.266ZM93.3125 106.266V108.266H95.3125V106.266H93.3125ZM93.3125 97.0469H95.3125V95.0469H93.3125V97.0469ZM81.1562 48.4531C81.1562 57.7854 78.3316 65.4395 72.9916 71.4288C67.6265 77.4461 59.5862 81.9335 48.9147 84.6395L49.8978 88.5168C61.1013 85.6759 69.936 80.8664 75.9772 74.0908C82.0434 67.2871 85.1562 58.6521 85.1562 48.4531H81.1562ZM51.2093 85.7127L46.5218 75.947L42.9157 77.678L47.6032 87.4436L51.2093 85.7127ZM45.1944 78.7551C60.6397 74.9734 69.5605 67.6469 71.5184 58.4803L67.6066 57.6447C66.127 64.5719 59.1103 71.2297 44.2431 74.8699L45.1944 78.7551ZM69.5625 56.0625H49.1719V60.0625H69.5625V56.0625ZM51.1719 58.0625V48.4531H47.1719V58.0625H51.1719ZM49.1719 50.4531H83.1562V46.4531H49.1719V50.4531ZM103.578 44.625V84.625H107.578V44.625H103.578ZM105.578 82.625H93V86.625H105.578V82.625ZM95 84.625V44.625H91V84.625H95ZM93 46.625H105.578V42.625H93V46.625ZM103.578 87.2812V115.953H107.578V87.2812H103.578ZM105.578 113.953H56.75V117.953H105.578V113.953ZM58.75 115.953V87.2812H54.75V115.953H58.75ZM56.75 89.2812H105.578V85.2812H56.75V89.2812ZM67.1719 97.0469V106.266H71.1719V97.0469H67.1719ZM69.1719 108.266H93.3125V104.266H69.1719V108.266ZM95.3125 106.266V97.0469H91.3125V106.266H95.3125ZM93.3125 95.0469H69.1719V99.0469H93.3125V95.0469ZM177.744 44.4688H179.744V42.4688H177.744V44.4688ZM177.744 116.734V118.734H179.744V116.734H177.744ZM165.322 116.734H163.322V118.734H165.322V116.734ZM165.322 44.4688V42.4688H163.322V44.4688H165.322ZM116.416 95.1719L116.439 93.172L114.086 93.144L114.438 95.4715L116.416 95.1719ZM161.884 93.4531L163.877 93.2813L163.697 91.1937L161.62 91.4707L161.884 93.4531ZM162.666 102.516L163.05 104.478L164.812 104.133L164.658 102.344L162.666 102.516ZM117.978 105.484L116.001 105.784L116.258 107.484H117.978V105.484ZM161.416 52.6719H163.416V50.6719H161.416V52.6719ZM161.416 62.3594V64.3594H163.416V62.3594H161.416ZM117.822 62.3594H115.822V64.3594H117.822V62.3594ZM117.822 52.6719V50.6719H115.822V52.6719H117.822ZM133.213 52.6719V54.6719H135.213V52.6719H133.213ZM133.213 45.3281V43.3281H131.213V45.3281H133.213ZM145.947 45.3281H147.947V43.3281H145.947V45.3281ZM145.947 52.6719H143.947V54.6719H145.947V52.6719ZM157.9 78.2969L159.9 78.3159L159.9 78.2971L159.9 78.2782L157.9 78.2969ZM121.572 78.2969L123.572 78.3159L123.572 78.2971L123.572 78.2782L121.572 78.2969ZM133.447 78.2969L135.446 78.3481L135.448 78.2969L135.446 78.2456L133.447 78.2969ZM175.744 44.4688V116.734H179.744V44.4688H175.744ZM177.744 114.734H165.322V118.734H177.744V114.734ZM167.322 116.734V44.4688H163.322V116.734H167.322ZM165.322 46.4688H177.744V42.4688H165.322V46.4688ZM116.392 97.1717C129.496 97.3277 146.748 97.489 162.149 95.4356L161.62 91.4707C146.552 93.4797 129.586 93.3285 116.439 93.172L116.392 97.1717ZM159.892 93.6249L160.673 102.687L164.658 102.344L163.877 93.2813L159.892 93.6249ZM162.281 100.553C146.568 103.634 130.754 103.484 117.978 103.484V107.484C130.671 107.484 146.888 107.647 163.05 104.478L162.281 100.553ZM119.956 105.185L118.393 94.8723L114.438 95.4715L116.001 105.784L119.956 105.185ZM159.416 52.6719V62.3594H163.416V52.6719H159.416ZM161.416 60.3594H117.822V64.3594H161.416V60.3594ZM119.822 62.3594V52.6719H115.822V62.3594H119.822ZM117.822 54.6719H133.213V50.6719H117.822V54.6719ZM135.213 52.6719V45.3281H131.213V52.6719H135.213ZM133.213 47.3281H145.947V43.3281H133.213V47.3281ZM143.947 45.3281V52.6719H147.947V45.3281H143.947ZM145.947 54.6719H161.416V50.6719H145.947V54.6719ZM139.697 66.3906C144.723 66.3906 148.797 67.6944 151.574 69.802C154.309 71.8786 155.867 74.7857 155.9 78.3156L159.9 78.2782C159.855 73.4487 157.663 69.4027 153.992 66.616C150.362 63.8602 145.374 62.3906 139.697 62.3906V66.3906ZM155.9 78.2778C155.867 81.7197 154.317 84.6111 151.574 86.6941C148.793 88.8047 144.716 90.125 139.697 90.125V94.125C145.381 94.125 150.366 92.6328 153.992 89.8801C157.654 87.0998 159.855 83.0772 159.9 78.3159L155.9 78.2778ZM139.697 90.125C134.717 90.125 130.619 88.8051 127.828 86.6924C125.074 84.6083 123.539 81.7293 123.572 78.3159L119.572 78.2778C119.526 83.0675 121.742 87.1026 125.414 89.8819C129.048 92.6324 134.051 94.125 139.697 94.125V90.125ZM123.572 78.2782C123.539 74.7761 125.083 71.8811 127.828 69.8037C130.615 67.6941 134.711 66.3906 139.697 66.3906V62.3906C134.058 62.3906 129.052 63.8606 125.414 66.6142C121.733 69.4002 119.527 73.4583 119.572 78.3156L123.572 78.2782ZM139.697 71.8438C137.592 71.8438 135.554 72.2212 133.994 73.2659C132.307 74.3958 131.392 76.1688 131.448 78.3481L135.446 78.2456C135.424 77.3781 135.72 76.9245 136.22 76.5895C136.847 76.1694 137.974 75.8438 139.697 75.8438V71.8438ZM131.448 78.2456C131.392 80.4309 132.313 82.1932 134.015 83.3025C135.576 84.32 137.61 84.6719 139.697 84.6719V80.6719C137.955 80.6719 136.825 80.3597 136.199 79.9514C135.713 79.6349 135.424 79.2097 135.446 78.3481L131.448 78.2456ZM139.697 84.6719C141.721 84.6719 143.713 84.3146 145.259 83.298C146.928 82.2003 147.869 80.4658 147.869 78.2969H143.869C143.869 79.1748 143.56 79.6279 143.061 79.9559C142.439 80.3651 141.344 80.6719 139.697 80.6719V84.6719ZM147.869 78.2969C147.869 76.1342 146.934 74.3887 145.279 73.2706C143.735 72.2272 141.74 71.8438 139.697 71.8438V75.8438C141.326 75.8438 142.416 76.1635 143.04 76.5849C143.553 76.9316 143.869 77.4127 143.869 78.2969H147.869ZM250.613 44.4688H252.613V42.4688H250.613V44.4688ZM250.613 116.734V118.734H252.613V116.734H250.613ZM238.816 116.734H236.816V118.734H238.816V116.734ZM238.816 44.4688V42.4688H236.816V44.4688H238.816ZM235.691 45.4062H237.691V43.4062H235.691V45.4062ZM235.691 113.688V115.688H237.691V113.688H235.691ZM224.05 113.688H222.05V115.688H224.05V113.688ZM224.05 94.1562H226.05V88.3531L222.475 92.9241L224.05 94.1562ZM217.878 102.047L216.881 103.781L218.385 104.645L219.453 103.279L217.878 102.047ZM205.769 86.2656L207.663 85.6234L205.748 79.9749L203.87 85.6362L205.769 86.2656ZM193.269 103.688L191.711 104.942L192.816 106.314L194.317 105.391L193.269 103.688ZM185.847 94.4688L184.788 92.7721L182.875 93.9662L184.289 95.723L185.847 94.4688ZM199.597 61.1094H201.597V59.1094H199.597V61.1094ZM189.05 61.1094H187.05V63.1094H189.05V61.1094ZM189.05 51.1875V49.1875H187.05V51.1875H189.05ZM221.081 51.1875H223.081V49.1875H221.081V51.1875ZM221.081 61.1094V63.1094H223.081V61.1094H221.081ZM211.628 61.1094V59.1094H209.628V61.1094H211.628ZM211.628 63.0625L213.628 63.0763V63.0625H211.628ZM224.05 92.2812L222.982 93.9721L226.05 95.9105V92.2812H224.05ZM224.05 78.5312H226.05V76.5312H224.05V78.5312ZM216.238 78.5312H214.238V80.5312H216.238V78.5312ZM216.238 68.4531V66.4531H214.238V68.4531H216.238ZM224.05 68.4531V70.4531H226.05V68.4531H224.05ZM224.05 45.4062V43.4062H222.05V45.4062H224.05ZM248.613 44.4688V116.734H252.613V44.4688H248.613ZM250.613 114.734H238.816V118.734H250.613V114.734ZM240.816 116.734V44.4688H236.816V116.734H240.816ZM238.816 46.4688H250.613V42.4688H238.816V46.4688ZM233.691 45.4062V113.688H237.691V45.4062H233.691ZM235.691 111.688H224.05V115.688H235.691V111.688ZM226.05 113.688V94.1562H222.05V113.688H226.05ZM222.475 92.9241L216.303 100.815L219.453 103.279L225.625 95.3884L222.475 92.9241ZM218.875 100.313C213.427 97.1798 209.856 92.0916 207.663 85.6234L203.875 86.9079C206.291 94.0334 210.376 100.039 216.881 103.781L218.875 100.313ZM203.87 85.6362C201.497 92.7938 197.775 98.5658 192.221 101.984L194.317 105.391C200.95 101.309 205.119 94.5812 207.667 86.8951L203.87 85.6362ZM194.827 102.433L187.405 93.2145L184.289 95.723L191.711 104.942L194.827 102.433ZM186.906 96.1654C198.84 88.717 201.597 74.9554 201.597 63.0625H197.597C197.597 74.6071 194.885 86.4705 184.788 92.7721L186.906 96.1654ZM201.597 63.0625V61.1094H197.597V63.0625H201.597ZM199.597 59.1094H189.05V63.1094H199.597V59.1094ZM191.05 61.1094V51.1875H187.05V61.1094H191.05ZM189.05 53.1875H221.081V49.1875H189.05V53.1875ZM219.081 51.1875V61.1094H223.081V51.1875H219.081ZM221.081 59.1094H211.628V63.1094H221.081V59.1094ZM209.628 61.1094V63.0625H213.628V61.1094H209.628ZM209.628 63.0487C209.549 74.5471 211.985 87.0243 222.982 93.9721L225.118 90.5904C215.959 84.8039 213.551 74.2341 213.628 63.0763L209.628 63.0487ZM226.05 92.2812V78.5312H222.05V92.2812H226.05ZM224.05 76.5312H216.238V80.5312H224.05V76.5312ZM218.238 78.5312V68.4531H214.238V78.5312H218.238ZM216.238 70.4531H224.05V66.4531H216.238V70.4531ZM226.05 68.4531V45.4062H222.05V68.4531H226.05ZM224.05 47.4062H235.691V43.4062H224.05V47.4062ZM110.656 193.922H112.656V191.922H110.656V193.922ZM110.656 204.312V206.312H112.656V204.312H110.656ZM44.6406 204.312H42.6406V206.312H44.6406V204.312ZM44.6406 193.922V191.922H42.6406V193.922H44.6406ZM71.2812 193.922V195.922H73.2812V193.922H71.2812ZM71.2812 183.141H73.2812V181.141H71.2812V183.141ZM49.7969 183.141H47.7969V185.141H49.7969V183.141ZM49.7969 173.531V171.531H47.7969V173.531H49.7969ZM58.4688 173.531V175.531H60.4688V173.531H58.4688ZM58.4688 154.859H60.4688V152.859H58.4688V154.859ZM49.4062 154.859H47.4062V156.859H49.4062V154.859ZM49.4062 145.016V143.016H47.4062V145.016H49.4062ZM105.656 145.016H107.656V143.016H105.656V145.016ZM105.656 154.859V156.859H107.656V154.859H105.656ZM96.3594 154.859V152.859H94.3594V154.859H96.3594ZM96.3594 173.531H94.3594V175.531H96.3594V173.531ZM105.266 173.531H107.266V171.531H105.266V173.531ZM105.266 183.141V185.141H107.266V183.141H105.266ZM83.7031 183.141V181.141H81.7031V183.141H83.7031ZM83.7031 193.922H81.7031V195.922H83.7031V193.922ZM70.9688 173.531H68.9688V175.531H70.9688V173.531ZM83.9375 173.531V175.531H85.9375V173.531H83.9375ZM83.9375 154.859H85.9375V152.859H83.9375V154.859ZM70.9688 154.859V152.859H68.9688V154.859H70.9688ZM108.656 193.922V204.312H112.656V193.922H108.656ZM110.656 202.312H44.6406V206.312H110.656V202.312ZM46.6406 204.312V193.922H42.6406V204.312H46.6406ZM44.6406 195.922H71.2812V191.922H44.6406V195.922ZM73.2812 193.922V183.141H69.2812V193.922H73.2812ZM71.2812 181.141H49.7969V185.141H71.2812V181.141ZM51.7969 183.141V173.531H47.7969V183.141H51.7969ZM49.7969 175.531H58.4688V171.531H49.7969V175.531ZM60.4688 173.531V154.859H56.4688V173.531H60.4688ZM58.4688 152.859H49.4062V156.859H58.4688V152.859ZM51.4062 154.859V145.016H47.4062V154.859H51.4062ZM49.4062 147.016H105.656V143.016H49.4062V147.016ZM103.656 145.016V154.859H107.656V145.016H103.656ZM105.656 152.859H96.3594V156.859H105.656V152.859ZM94.3594 154.859V173.531H98.3594V154.859H94.3594ZM96.3594 175.531H105.266V171.531H96.3594V175.531ZM103.266 173.531V183.141H107.266V173.531H103.266ZM105.266 181.141H83.7031V185.141H105.266V181.141ZM81.7031 183.141V193.922H85.7031V183.141H81.7031ZM83.7031 195.922H110.656V191.922H83.7031V195.922ZM70.9688 175.531H83.9375V171.531H70.9688V175.531ZM85.9375 173.531V154.859H81.9375V173.531H85.9375ZM83.9375 152.859H70.9688V156.859H83.9375V152.859ZM68.9688 154.859V173.531H72.9688V154.859H68.9688ZM175.322 175.797H177.322V173.797H175.322V175.797ZM175.322 185.484V187.484H177.322V185.484H175.322ZM123.525 185.484H121.525V187.484H123.525V185.484ZM123.525 144.234V142.234H121.525V144.234H123.525ZM174.931 144.234H176.931V142.234H174.931V144.234ZM174.931 154.312V156.312H176.931V154.312H174.931ZM136.259 154.312V152.312H134.259V154.312H136.259ZM136.259 159.938H134.259V161.938H136.259V159.938ZM173.134 159.938H175.134V157.938H173.134V159.938ZM173.134 169.625V171.625H175.134V169.625H173.134ZM136.259 169.625V167.625H134.259V169.625H136.259ZM136.259 175.797H134.259V177.797H136.259V175.797ZM182.197 193.922H184.197V191.922H182.197V193.922ZM182.197 204V206H184.197V204H182.197ZM116.181 204H114.181V206H116.181V204ZM116.181 193.922V191.922H114.181V193.922H116.181ZM173.322 175.797V185.484H177.322V175.797H173.322ZM175.322 183.484H123.525V187.484H175.322V183.484ZM125.525 185.484V144.234H121.525V185.484H125.525ZM123.525 146.234H174.931V142.234H123.525V146.234ZM172.931 144.234V154.312H176.931V144.234H172.931ZM174.931 152.312H136.259V156.312H174.931V152.312ZM134.259 154.312V159.938H138.259V154.312H134.259ZM136.259 161.938H173.134V157.938H136.259V161.938ZM171.134 159.938V169.625H175.134V159.938H171.134ZM173.134 167.625H136.259V171.625H173.134V167.625ZM134.259 169.625V175.797H138.259V169.625H134.259ZM136.259 177.797H175.322V173.797H136.259V177.797ZM180.197 193.922V204H184.197V193.922H180.197ZM182.197 202H116.181V206H182.197V202ZM118.181 204V193.922H114.181V204H118.181ZM116.181 195.922H182.197V191.922H116.181V195.922ZM247.956 141.109H249.956V139.109H247.956V141.109ZM247.956 150.25V152.25H249.956V150.25H247.956ZM239.675 150.25V148.25H237.675V150.25H239.675ZM239.675 156.812H237.675V158.812H239.675V156.812ZM247.331 156.812H249.331V154.812H247.331V156.812ZM247.331 166.031V168.031H249.331V166.031H247.331ZM226.863 166.031V164.031H224.863V166.031H226.863ZM226.863 169H224.863V171H226.863V169ZM253.659 169H255.659V167H253.659V169ZM253.659 178.609V180.609H255.659V178.609H253.659ZM187.722 178.609H185.722V180.609H187.722V178.609ZM187.722 169V167H185.722V169H187.722ZM214.206 169V171H216.206V169H214.206ZM214.206 166.031H216.206V164.031H214.206V166.031ZM193.972 166.031H191.972V168.031H193.972V166.031ZM193.972 156.812V154.812H191.972V156.812H193.972ZM201.55 156.812V158.812H203.55V156.812H201.55ZM201.55 150.25H203.55V148.25H201.55V150.25ZM193.269 150.25H191.269V152.25H193.269V150.25ZM193.269 141.109V139.109H191.269V141.109H193.269ZM245.847 181.109H247.847V179.109H245.847V181.109ZM245.847 200.25V202.25H247.847V200.25H245.847ZM207.331 200.25V198.25H205.331V200.25H207.331ZM207.331 202.359H205.331V204.359H207.331V202.359ZM247.566 202.359H249.566V200.359H247.566V202.359ZM247.566 211.422V213.422H249.566V211.422H247.566ZM195.066 211.422H193.066V213.422H195.066V211.422ZM195.066 191.969V189.969H193.066V191.969H195.066ZM233.503 191.969V193.969H235.503V191.969H233.503ZM233.503 189.859H235.503V187.859H233.503V189.859ZM195.144 189.859H193.144V191.859H195.144V189.859ZM195.144 181.109V179.109H193.144V181.109H195.144ZM214.05 156.812H212.05V158.812H214.05V156.812ZM227.019 156.812V158.812H229.019V156.812H227.019ZM227.019 150.25H229.019V148.25H227.019V150.25ZM214.05 150.25V148.25H212.05V150.25H214.05ZM245.956 141.109V150.25H249.956V141.109H245.956ZM247.956 148.25H239.675V152.25H247.956V148.25ZM237.675 150.25V156.812H241.675V150.25H237.675ZM239.675 158.812H247.331V154.812H239.675V158.812ZM245.331 156.812V166.031H249.331V156.812H245.331ZM247.331 164.031H226.863V168.031H247.331V164.031ZM224.863 166.031V169H228.863V166.031H224.863ZM226.863 171H253.659V167H226.863V171ZM251.659 169V178.609H255.659V169H251.659ZM253.659 176.609H187.722V180.609H253.659V176.609ZM189.722 178.609V169H185.722V178.609H189.722ZM187.722 171H214.206V167H187.722V171ZM216.206 169V166.031H212.206V169H216.206ZM214.206 164.031H193.972V168.031H214.206V164.031ZM195.972 166.031V156.812H191.972V166.031H195.972ZM193.972 158.812H201.55V154.812H193.972V158.812ZM203.55 156.812V150.25H199.55V156.812H203.55ZM201.55 148.25H193.269V152.25H201.55V148.25ZM195.269 150.25V141.109H191.269V150.25H195.269ZM193.269 143.109H247.956V139.109H193.269V143.109ZM243.847 181.109V200.25H247.847V181.109H243.847ZM245.847 198.25H207.331V202.25H245.847V198.25ZM205.331 200.25V202.359H209.331V200.25H205.331ZM207.331 204.359H247.566V200.359H207.331V204.359ZM245.566 202.359V211.422H249.566V202.359H245.566ZM247.566 209.422H195.066V213.422H247.566V209.422ZM197.066 211.422V191.969H193.066V211.422H197.066ZM195.066 193.969H233.503V189.969H195.066V193.969ZM235.503 191.969V189.859H231.503V191.969H235.503ZM233.503 187.859H195.144V191.859H233.503V187.859ZM197.144 189.859V181.109H193.144V189.859H197.144ZM195.144 183.109H245.847V179.109H195.144V183.109ZM214.05 158.812H227.019V154.812H214.05V158.812ZM229.019 156.812V150.25H225.019V156.812H229.019ZM227.019 148.25H214.05V152.25H227.019V148.25ZM212.05 150.25V156.812H216.05V150.25H212.05ZM320.356 139.469H322.356V137.469H320.356V139.469ZM320.356 211.969V213.969H322.356V211.969H320.356ZM307.856 211.969H305.856V213.969H307.856V211.969ZM307.856 139.469V137.469H305.856V139.469H307.856ZM297.7 145.172H299.7V143.172H297.7V145.172ZM297.7 174.391V176.391H299.7V174.391H297.7ZM275.903 174.391V172.391H273.903V174.391H275.903ZM275.903 185.172H273.903V187.195L275.926 187.172L275.903 185.172ZM303.872 182.906L305.862 182.706L305.647 180.575L303.536 180.935L303.872 182.906ZM304.887 192.984L305.253 194.951L307.062 194.615L306.877 192.784L304.887 192.984ZM262.934 195.406H260.934V197.406H262.934V195.406ZM262.934 164.625V162.625H260.934V164.625H262.934ZM284.887 164.625V166.625H286.887V164.625H284.887ZM284.887 155.172H286.887V153.172H284.887V155.172ZM262.934 155.172H260.934V157.172H262.934V155.172ZM262.934 145.172V143.172H260.934V145.172H262.934ZM318.356 139.469V211.969H322.356V139.469H318.356ZM320.356 209.969H307.856V213.969H320.356V209.969ZM309.856 211.969V139.469H305.856V211.969H309.856ZM307.856 141.469H320.356V137.469H307.856V141.469ZM295.7 145.172V174.391H299.7V145.172H295.7ZM297.7 172.391H275.903V176.391H297.7V172.391ZM273.903 174.391V185.172H277.903V174.391H273.903ZM275.926 187.172C286.309 187.054 294.895 186.463 304.207 184.878L303.536 180.935C294.489 182.475 286.122 183.056 275.88 183.172L275.926 187.172ZM301.882 183.107L302.898 193.185L306.877 192.784L305.862 182.706L301.882 183.107ZM304.522 191.018C293.772 193.014 283.375 193.406 269.731 193.406V197.406C283.431 197.406 294.128 197.017 305.253 194.951L304.522 191.018ZM269.731 193.406H262.934V197.406H269.731V193.406ZM264.934 195.406V164.625H260.934V195.406H264.934ZM262.934 166.625H284.887V162.625H262.934V166.625ZM286.887 164.625V155.172H282.887V164.625H286.887ZM284.887 153.172H262.934V157.172H284.887V153.172ZM264.934 155.172V145.172H260.934V155.172H264.934ZM262.934 147.172H297.7V143.172H262.934V147.172ZM369.944 183.141L369.659 181.161L367.944 181.408V183.141H369.944ZM369.944 193.688H367.944V195.688H369.944V193.688ZM396.819 193.688H398.819V191.688H396.819V193.688ZM396.819 203.844V205.844H398.819V203.844H396.819ZM330.803 203.844H328.803V205.844H330.803V203.844ZM330.803 193.688V191.688H328.803V193.688H330.803ZM357.522 193.688V195.688H359.522V193.688H357.522ZM357.522 183.062H359.522V181.319L357.794 181.081L357.522 183.062ZM336.194 162.906L338.194 162.92L338.194 162.907L338.194 162.893L336.194 162.906ZM379.006 162.906L381.006 162.928L381.006 162.905L381.006 162.882L379.006 162.906ZM363.772 144.594C371.261 144.594 377.742 146.544 382.294 149.805C386.811 153.041 389.428 157.549 389.428 162.906H393.428C393.428 156.076 390.03 150.427 384.624 146.554C379.254 142.706 371.908 140.594 363.772 140.594V144.594ZM389.428 162.906C389.428 172.535 381.621 179.442 369.659 181.161L370.228 185.12C383.267 183.246 393.428 175.309 393.428 162.906H389.428ZM367.944 183.141V193.688H371.944V183.141H367.944ZM369.944 195.688H396.819V191.688H369.944V195.688ZM394.819 193.688V203.844H398.819V193.688H394.819ZM396.819 201.844H330.803V205.844H396.819V201.844ZM332.803 203.844V193.688H328.803V203.844H332.803ZM330.803 195.688H357.522V191.688H330.803V195.688ZM359.522 193.688V183.062H355.522V193.688H359.522ZM357.794 181.081C345.852 179.439 338.125 172.505 338.194 162.92L334.194 162.892C334.106 175.26 344.192 183.248 357.249 185.044L357.794 181.081ZM338.194 162.893C338.159 157.536 340.741 153.034 345.233 149.803C349.763 146.545 356.242 144.594 363.772 144.594V140.594C355.599 140.594 348.25 142.705 342.897 146.556C337.506 150.434 334.15 156.089 334.194 162.919L338.194 162.893ZM363.772 150.516C358.959 150.516 354.736 151.518 351.651 153.59C348.488 155.714 346.616 158.916 346.616 162.906H350.616C350.616 160.334 351.752 158.34 353.881 156.91C356.089 155.427 359.444 154.516 363.772 154.516V150.516ZM346.616 162.906C346.616 167.153 348.44 170.457 351.651 172.613C354.754 174.698 358.992 175.609 363.772 175.609V171.609C359.411 171.609 356.071 170.763 353.881 169.293C351.799 167.894 350.616 165.847 350.616 162.906H346.616ZM363.772 175.609C368.553 175.609 372.788 174.697 375.9 172.615C379.115 170.464 380.96 167.168 381.006 162.928L377.006 162.885C376.974 165.832 375.772 167.888 373.675 169.291C371.474 170.764 368.131 171.609 363.772 171.609V175.609ZM381.006 162.882C380.959 158.901 379.068 155.708 375.9 153.588C372.807 151.519 368.586 150.516 363.772 150.516V154.516C368.099 154.516 371.455 155.427 373.675 156.912C375.819 158.347 376.976 160.349 377.006 162.93L381.006 162.882Z" fill="black" mask="url(#path-1-outside-1_309_58)"/>
</svg>
