<svg width="727" height="256" viewBox="0 0 727 256" fill="none" xmlns="http://www.w3.org/2000/svg">
<path d="M173.156 69.4531C173.156 88.9844 161.281 102.031 139.406 107.578L134.719 97.8125C149.875 94.1016 157.844 87.1094 159.562 79.0625H139.172V69.4531H173.156ZM195.578 65.625V105.625H183V65.625H195.578ZM195.578 108.281V136.953H146.75V108.281H195.578ZM159.172 118.047V127.266H183.312V118.047H159.172ZM267.744 65.4688V137.734H255.322V65.4688H267.744ZM206.416 116.172C219.541 116.328 236.65 116.484 251.884 114.453L252.666 123.516C236.728 126.641 220.713 126.484 207.978 126.484L206.416 116.172ZM251.416 73.6719V83.3594H207.822V73.6719H223.213V66.3281H235.947V73.6719H251.416ZM229.697 85.3906C240.4 85.3906 247.822 90.9375 247.9 99.2969C247.822 107.5 240.4 113.125 229.697 113.125C219.072 113.125 211.494 107.5 211.572 99.2969C211.494 90.9375 219.072 85.3906 229.697 85.3906ZM229.697 94.8438C225.869 94.8438 223.369 96.25 223.447 99.2969C223.369 102.344 225.869 103.672 229.697 103.672C233.369 103.672 235.869 102.344 235.869 99.2969C235.869 96.25 233.369 94.8438 229.697 94.8438ZM340.613 65.4688V137.734H328.816V65.4688H340.613ZM325.691 66.4062V134.688H314.05V115.156L307.878 123.047C301.902 119.609 298.073 114.062 295.769 107.266C293.308 114.688 289.363 120.938 283.269 124.688L275.847 115.469C286.863 108.594 289.597 95.7812 289.597 84.0625V82.1094H279.05V72.1875H311.081V82.1094H301.628V84.0625C301.55 95.3906 303.972 106.914 314.05 113.281V99.5312H306.238V89.4531H314.05V66.4062H325.691ZM194.875 162.109V171.25H186.594V177.422H194.25V186.797H140.891V177.422H148.469V171.25H140.188V162.109H194.875ZM200.578 189.141V198.906H173.781V202.109H192.766V221.25H154.25V223.359H194.484V232.422H141.984V212.969H180.422V210.859H142.062V202.109H161.125V198.906H134.641V189.141H200.578ZM160.969 177.422H173.938V171.25H160.969V177.422ZM245.478 169.297C245.4 178.828 251.728 190.312 270.478 193.359L265.088 203.75C251.845 201.328 243.291 194.766 238.759 186.328C234.072 194.688 225.478 201.25 212.431 203.75L207.119 193.359C225.478 190.234 231.963 178.594 231.963 169.297V164.375H245.478V169.297ZM272.197 214.297V224.531H206.181V214.297H272.197ZM308.659 165.078V175H291.784V178.984H308.034V188.359H291.784V192.5C298.347 192.344 303.738 192.031 309.753 191.094L310.925 201.094C302.488 202.5 295.3 202.656 284.988 202.656H279.831V165.078H308.659ZM340.222 160.625V204.766H328.347V187.422H324.597V204.297H312.956V161.797H324.597V177.5H328.347V160.625H340.222ZM340.222 207.344V232.734H327.722V217.266H289.519V207.344H340.222ZM431.741 160.469V232.734H419.788V196.719H415.334V229.766H403.772V162.344H415.334V186.719H419.788V160.469H431.741ZM400.647 169.141C400.647 190.391 394.866 206.406 374.788 218.281L367.6 209.688C380.998 201.602 386.936 192.539 388.459 179.062H371.819V169.141H400.647ZM454.609 163.906V171.328H465.469V163.906H477.969V195.469H442.188V163.906H454.609ZM454.609 185.781H465.469V180.547H454.609V185.781ZM498.438 160.469V173.516H507.422V183.594H498.438V196.953H485.859V160.469H498.438ZM498.438 199.141V220.156H461.797V222.734H500.156V232.422H449.375V211.328H485.938V208.672H449.375V199.141H498.438ZM540.291 178.594C540.212 189.297 544.431 201.953 557.244 207.734L550.369 217.5C542.517 214.062 537.283 207.539 534.197 199.688C531.033 208.438 525.642 215.664 517.4 219.375L510.212 209.531C523.259 203.516 527.556 190.312 527.556 178.594V177.344H513.259V167.188H553.728V177.344H540.291V178.594ZM569.822 160.469V187.031H579.587V197.422H569.822V232.734H557.244V160.469H569.822Z" fill="black"/>
<circle cx="363.5" cy="128.5" r="7.5" fill="black"/>
</svg>
